<?xml version="1.0" standalone="no"?>
<!DOCTYPE svg PUBLIC "-//W3C//DTD SVG 20010904//EN"
 "http://www.w3.org/TR/2001/REC-SVG-20010904/DTD/svg10.dtd">
<svg version="1.0" xmlns="http://www.w3.org/2000/svg"
 width="512.000000pt" height="512.000000pt" viewBox="0 0 512.000000 512.000000"
 preserveAspectRatio="xMidYMid meet">
<metadata>
Created by potrace 1.16, written by Peter Selinger 2001-2019
</metadata>
<g transform="translate(0.000000,512.000000) scale(0.100000,-0.100000)"
fill="#000000" stroke="none">
<path d="M2525 4794 c-40 -15 -57 -30 -215 -205 -105 -116 -188 -206 -216
-233 -11 -12 -65 -70 -120 -131 -54 -60 -110 -121 -124 -135 -14 -15 -65 -71
-115 -126 -74 -82 -206 -224 -225 -244 -6 -6 -242 -265 -295 -324 -6 -6 -46
-49 -90 -96 -112 -119 -275 -297 -321 -350 -56 -65 -111 -124 -179 -194 -33
-34 -80 -84 -104 -112 -24 -27 -71 -79 -105 -115 -148 -159 -166 -186 -166
-256 0 -110 105 -191 210 -163 43 12 84 49 225 205 54 61 122 135 151 165 29
30 63 67 76 81 52 59 197 218 259 284 55 59 109 118 189 205 8 9 60 65 115
124 55 60 111 120 124 135 13 14 63 69 110 121 48 52 107 117 132 144 24 28
58 64 74 81 27 29 81 87 290 314 33 36 67 72 75 81 8 9 50 55 93 102 43 48
107 117 142 155 l65 68 47 -50 c46 -48 146 -160 209 -234 16 -19 36 -42 44
-50 8 -9 53 -59 99 -111 47 -52 94 -104 105 -115 19 -18 134 -146 211 -234 17
-18 35 -39 40 -45 6 -6 48 -54 95 -106 47 -52 106 -117 131 -145 26 -27 62
-66 80 -87 19 -20 59 -65 89 -99 81 -93 134 -153 146 -164 5 -5 46 -50 90 -99
43 -50 95 -106 114 -126 19 -20 60 -65 90 -101 30 -35 63 -73 75 -84 11 -12
56 -61 100 -110 43 -50 86 -97 95 -106 8 -9 40 -44 70 -79 78 -90 97 -106 140
-119 155 -46 276 138 178 274 -21 30 -102 123 -209 240 -25 27 -65 72 -90 99
-24 27 -62 67 -84 90 -22 23 -65 71 -95 107 -30 35 -57 66 -60 69 -3 3 -43 48
-90 100 -47 52 -89 100 -95 106 -175 191 -212 232 -246 271 -15 17 -49 55 -75
85 -27 29 -83 92 -124 138 -96 108 -170 189 -195 215 -11 11 -49 54 -85 95
-36 41 -72 81 -80 90 -8 9 -35 39 -59 66 -25 27 -65 72 -90 99 -49 53 -168
187 -202 226 -11 13 -39 44 -62 69 -23 25 -79 86 -125 137 -66 73 -92 95 -129
107 -55 19 -56 19 -108 0z"/>
<path d="M2305 2740 c-81 -22 -188 -60 -195 -69 -3 -4 -32 -22 -65 -40 -59
-33 -143 -98 -174 -135 -9 -11 -28 -31 -42 -45 -14 -14 -34 -41 -45 -58 -10
-18 -22 -33 -27 -33 -4 0 -17 -21 -28 -47 -11 -27 -27 -55 -34 -63 -7 -8 -27
-62 -44 -119 -29 -97 -31 -114 -31 -261 0 -147 2 -164 31 -261 17 -57 35 -106
39 -109 5 -3 18 -26 29 -52 12 -25 28 -51 36 -58 9 -8 12 -17 7 -24 -5 -6 -22
-47 -37 -91 -15 -44 -31 -82 -35 -85 -12 -9 -74 -199 -67 -206 7 -7 268 76
277 88 4 4 32 17 64 28 l58 20 41 -22 c23 -11 44 -24 47 -28 8 -11 111 -47
199 -70 63 -16 111 -20 233 -20 141 0 164 3 260 30 102 28 158 48 168 60 3 4
34 22 70 42 39 22 101 72 155 125 92 91 136 148 168 218 10 22 22 42 27 45 4
3 22 52 39 109 29 97 31 114 31 261 0 147 -2 164 -31 261 -17 57 -34 106 -39
109 -4 3 -20 31 -35 63 -15 31 -30 57 -34 57 -4 0 -15 15 -25 33 -30 53 -186
196 -256 235 -36 20 -67 39 -70 42 -8 11 -113 48 -199 70 -108 27 -361 27
-466 0z m175 -71 c0 -12 7 -49 16 -83 9 -33 16 -74 16 -91 -1 -33 -31 -105
-44 -105 -5 0 -6 -4 -3 -10 3 -5 2 -10 -3 -10 -5 0 -17 -15 -25 -32 -9 -18
-27 -48 -41 -67 -14 -18 -28 -47 -32 -63 -9 -45 32 -80 103 -86 29 -2 53 -8
53 -13 0 -5 -16 -26 -35 -48 -19 -21 -35 -47 -35 -57 1 -23 46 -58 63 -48 6 4
3 -2 -7 -15 -16 -17 -18 -27 -10 -49 8 -24 15 -27 59 -30 64 -4 75 -15 75 -69
0 -75 43 -134 114 -154 32 -9 62 -7 155 10 102 18 119 18 138 6 37 -25 72
-179 73 -319 0 -76 -9 -90 -86 -136 -22 -12 -55 -33 -74 -46 -27 -18 -176 -74
-197 -74 -2 0 -14 21 -26 47 -13 27 -30 59 -40 74 -26 40 -55 131 -62 203 -4
36 -11 66 -16 66 -5 0 -9 6 -9 13 0 19 -49 115 -82 161 -15 21 -28 45 -28 51
0 7 -7 18 -16 25 -8 8 -23 30 -33 49 -22 44 -77 136 -125 212 -20 30 -36 60
-36 66 0 5 -9 18 -19 27 -11 10 -24 30 -31 46 -20 49 -79 51 -113 4 -19 -25
-19 -26 17 -99 20 -41 36 -78 36 -84 0 -5 4 -11 9 -13 4 -1 19 -26 33 -54 15
-33 19 -50 11 -47 -7 3 -27 0 -43 -7 -33 -14 -46 -45 -36 -86 5 -17 3 -23 -4
-19 -6 4 -24 1 -40 -5 -32 -13 -48 -59 -35 -99 5 -17 2 -21 -17 -21 -13 0 -34
-7 -46 -16 -32 -22 -27 -67 13 -139 19 -33 45 -83 59 -112 27 -57 50 -84 111
-128 21 -16 47 -36 56 -45 9 -8 26 -23 38 -33 13 -10 21 -21 18 -23 -8 -8
-129 36 -167 60 -96 62 -84 60 -158 35 -37 -12 -72 -26 -78 -30 -13 -11 -154
-60 -154 -54 0 2 6 10 13 17 8 7 24 45 37 83 12 39 28 79 34 90 41 67 39 99
-10 158 -13 15 -29 46 -35 67 -7 22 -15 40 -19 40 -4 0 -18 35 -31 78 -20 67
-23 98 -23 232 0 134 3 165 23 230 13 41 26 77 30 80 4 3 15 26 24 51 10 25
25 54 35 65 9 10 30 38 46 62 86 126 263 246 432 293 72 20 140 35 172 38 6 0
12 -8 12 -20z"/>
<path d="M1160 1539 l0 -1002 22 -43 c22 -45 73 -84 108 -84 10 0 22 -4 25
-10 9 -14 2425 -14 2425 0 0 6 14 10 30 10 39 0 105 64 119 117 7 26 11 361
11 1026 l0 987 -170 0 -170 0 0 -895 0 -895 -1029 0 c-929 0 -1029 2 -1035 16
-3 9 -6 411 -6 895 l0 879 -165 0 -165 0 0 -1001z"/>
</g>
</svg>
